<svg width="13" height="8" viewBox="0 0 13 8" fill="none" xmlns="http://www.w3.org/2000/svg">
<path d="M12.3637 1.86358C12.6566 1.57069 12.6566 1.09582 12.3637 0.802922C12.0709 0.510029 11.596 0.510029 11.3031 0.802922L12.3637 1.86358ZM6.50008 6.66658L5.96975 7.19692C6.26264 7.48981 6.73752 7.48981 7.03041 7.19692L6.50008 6.66658ZM1.69708 0.802922C1.40418 0.510029 0.929311 0.510029 0.636418 0.802922C0.343525 1.09582 0.343525 1.57069 0.636418 1.86358L1.69708 0.802922ZM11.3031 0.802922L5.96975 6.13625L7.03041 7.19692L12.3637 1.86358L11.3031 0.802922ZM7.03041 6.13625L1.69708 0.802922L0.636418 1.86358L5.96975 7.19692L7.03041 6.13625Z" fill="#525252"/>
</svg>
