<svg width="17" height="21" viewBox="0 0 17 21" fill="none" xmlns="http://www.w3.org/2000/svg">
<path d="M6.20898 0.833252C5.93284 0.833252 5.70898 1.05711 5.70898 1.33325C5.70898 1.60939 5.93284 1.83325 6.20898 1.83325V0.833252ZM10.7423 1.83325C11.0185 1.83325 11.2423 1.60939 11.2423 1.33325C11.2423 1.05711 11.0185 0.833252 10.7423 0.833252V1.83325ZM6.30898 17.3333C6.30898 17.0571 6.08513 16.8333 5.80898 16.8333C5.53284 16.8333 5.30898 17.0571 5.30898 17.3333H6.30898ZM11.6423 17.3333C11.6423 17.0571 11.4185 16.8333 11.1423 16.8333C10.8662 16.8333 10.6423 17.0571 10.6423 17.3333H11.6423ZM8.47565 3.76792L8.49001 3.26812C8.48062 3.26785 8.47122 3.26785 8.46183 3.26811L8.47565 3.76792ZM15.1343 9.67725L15.6324 9.63316C15.6315 9.62328 15.6303 9.61342 15.6289 9.60361L15.1343 9.67725ZM15.9343 13.6773L15.4576 13.8281C15.4745 13.8814 15.5002 13.9316 15.5337 13.9764L15.9343 13.6773ZM16.245 16.2266L16.6768 16.4786C16.6877 16.46 16.6974 16.4406 16.7057 16.4207L16.245 16.2266ZM14.3517 17.3293V17.8293L14.3578 17.8292L14.3517 17.3293ZM2.59698 17.3293L2.59083 17.8293H2.59698V17.3293ZM0.70365 16.2266L0.243053 16.4211C0.251402 16.4409 0.261016 16.4601 0.271834 16.4786L0.70365 16.2266ZM1.00898 13.6813L1.4105 13.9792C1.44355 13.9347 1.46895 13.885 1.48568 13.8321L1.00898 13.6813ZM1.80898 9.68125L1.3144 9.60789C1.31295 9.61761 1.3118 9.62737 1.31093 9.63716L1.80898 9.68125ZM6.20898 1.83325H10.7423V0.833252H6.20898V1.83325ZM5.30898 17.3333C5.30898 19.0822 6.72675 20.4999 8.47565 20.4999V19.4999C7.27903 19.4999 6.30898 18.5299 6.30898 17.3333H5.30898ZM8.47565 20.4999C10.2246 20.4999 11.6423 19.0822 11.6423 17.3333H10.6423C10.6423 18.5299 9.67227 19.4999 8.47565 19.4999V20.4999ZM8.4613 4.26771C11.5772 4.35721 14.1807 6.66768 14.6398 9.75089L15.6289 9.60361C15.0984 6.04115 12.0903 3.37153 8.49001 3.26812L8.4613 4.26771ZM14.6363 9.72135C14.7597 11.1161 15.0352 12.4932 15.4576 13.8281L16.411 13.5264C16.0105 12.2609 15.7494 10.9554 15.6324 9.63316L14.6363 9.72135ZM15.5337 13.9764C15.976 14.5688 16.0713 15.3512 15.7842 16.0324L16.7057 16.4207C17.1306 15.4126 16.9895 14.2548 16.335 13.3781L15.5337 13.9764ZM15.8132 15.9745C15.508 16.4974 14.9509 16.8218 14.3455 16.8293L14.3578 17.8292C15.3143 17.8174 16.1946 17.3048 16.6768 16.4786L15.8132 15.9745ZM14.3517 16.8293H2.59698V17.8293H14.3517V16.8293ZM2.60314 16.8293C1.99777 16.8218 1.44067 16.4974 1.13547 15.9745L0.271834 16.4786C0.75407 17.3048 1.63431 17.8174 2.59083 17.8292L2.60314 16.8293ZM1.16425 16.032C0.877185 15.3524 0.970842 14.5717 1.4105 13.9792L0.607468 13.3833C-0.0431588 14.26 -0.181757 15.4154 0.243053 16.4211L1.16425 16.032ZM1.48568 13.8321C1.90814 12.4972 2.18355 11.1201 2.30704 9.72535L1.31093 9.63716C1.19387 10.9594 0.932774 12.2649 0.532284 13.5304L1.48568 13.8321ZM2.30357 9.75462C2.76155 6.66725 5.36951 4.35399 8.48947 4.26773L8.46183 3.26811C4.85691 3.36778 1.84356 6.04062 1.3144 9.60789L2.30357 9.75462Z" fill="#262626"/>
</svg>
