<svg width="21" height="22" viewBox="0 0 21 22" fill="none" xmlns="http://www.w3.org/2000/svg">
<path fill-rule="evenodd" clip-rule="evenodd" d="M1.16675 10.6667V14.6667C1.16675 18.3486 4.15152 21.3333 7.83342 21.3333H13.1668C14.9349 21.3333 16.6306 20.631 17.8808 19.3807C19.131 18.1305 19.8334 16.4348 19.8334 14.6667V10.6667C19.8352 8.89802 19.1334 7.2013 17.8828 5.95067C16.6321 4.70004 14.9354 3.99823 13.1668 4H7.83342C6.06477 3.99823 4.36804 4.70004 3.11742 5.95067C1.86679 7.2013 1.16498 8.89802 1.16675 10.6667V10.6667Z" stroke="#262626" stroke-linecap="round" stroke-linejoin="round"/>
<path d="M6 6.66659C6 6.94273 6.22386 7.16659 6.5 7.16659C6.77614 7.16659 7 6.94273 7 6.66659H6ZM7 1.33325C7 1.05711 6.77614 0.833252 6.5 0.833252C6.22386 0.833252 6 1.05711 6 1.33325H7ZM14 6.66659C14 6.94273 14.2239 7.16659 14.5 7.16659C14.7761 7.16659 15 6.94273 15 6.66659H14ZM15 1.33325C15 1.05711 14.7761 0.833252 14.5 0.833252C14.2239 0.833252 14 1.05711 14 1.33325H15ZM6.5 11.0813C6.5 11.3574 6.72386 11.5813 7 11.5813C7.27614 11.5813 7.5 11.3574 7.5 11.0813H6.5ZM10.5 11.0813L10.9993 11.1081C10.9998 11.0992 11 11.0902 11 11.0813H10.5ZM9.76225 12.586L10.0893 12.9643L9.76225 12.586ZM8.16667 13.0986L8.1211 12.6007C7.86368 12.6242 7.66666 12.8401 7.66667 13.0986C7.66667 13.3571 7.8637 13.573 8.12111 13.5965L8.16667 13.0986ZM9.76179 13.6107L10.0887 13.2323L9.76179 13.6107ZM10.5 15.1146H11C11 15.1055 10.9998 15.0965 10.9993 15.0874L10.5 15.1146ZM7.5 15.1146C7.5 14.8384 7.27614 14.6146 7 14.6146C6.72386 14.6146 6.5 14.8384 6.5 15.1146H7.5ZM12.5064 10.2029C12.2975 10.3834 12.2745 10.6992 12.455 10.9081C12.6355 11.1171 12.9513 11.1401 13.1602 10.9596L12.5064 10.2029ZM14 9.57325H14.5C14.5 9.37763 14.3859 9.19998 14.208 9.11858C14.0301 9.03719 13.8211 9.06702 13.6731 9.19491L14 9.57325ZM13.5 16.6319C13.5 16.9081 13.7239 17.1319 14 17.1319C14.2761 17.1319 14.5 16.9081 14.5 16.6319H13.5ZM7 6.66659V1.33325H6V6.66659H7ZM15 6.66659V1.33325H14V6.66659H15ZM7.5 11.0813C7.5 10.741 7.63997 10.5068 7.8513 10.3446C8.07637 10.1719 8.40096 10.0703 8.75 10.0703C9.09904 10.0703 9.42363 10.1719 9.6487 10.3446C9.86003 10.5068 10 10.741 10 11.0813H11C11 10.4141 10.7025 9.89283 10.2575 9.55136C9.82637 9.22043 9.27596 9.07025 8.75 9.07025C8.22404 9.07025 7.67363 9.22043 7.24245 9.55136C6.79753 9.89283 6.5 10.4141 6.5 11.0813H7.5ZM10.0007 11.0544C9.97675 11.4997 9.7726 11.9161 9.43524 12.2078L10.0893 12.9643C10.6322 12.4949 10.9607 11.8248 10.9993 11.1081L10.0007 11.0544ZM9.43524 12.2078C9.09787 12.4995 8.65634 12.6413 8.21222 12.6007L8.12111 13.5965C8.83581 13.6619 9.54635 13.4336 10.0893 12.9643L9.43524 12.2078ZM8.21224 13.5965C8.65619 13.5559 9.09757 13.6976 9.4349 13.989L10.0887 13.2323C9.54582 12.7633 8.83553 12.5353 8.1211 12.6007L8.21224 13.5965ZM9.4349 13.989C9.77224 14.2805 9.9765 14.6966 10.0007 15.1418L10.9993 15.0874C10.9603 14.371 10.6315 13.7014 10.0887 13.2323L9.4349 13.989ZM10 15.1146C10 15.4557 9.85979 15.6905 9.64845 15.8529C9.42339 16.0258 9.09889 16.1276 8.75 16.1276C8.40111 16.1276 8.07661 16.0258 7.85155 15.8529C7.64021 15.6905 7.5 15.4557 7.5 15.1146H6.5C6.5 15.7821 6.79729 16.3039 7.2422 16.6458C7.67339 16.9772 8.22389 17.1276 8.75 17.1276C9.27611 17.1276 9.82661 16.9772 10.2578 16.6458C10.7027 16.3039 11 15.7821 11 15.1146H10ZM13.1602 10.9596L14.3269 9.9516L13.6731 9.19491L12.5064 10.2029L13.1602 10.9596ZM13.5 9.57325V16.6319H14.5V9.57325H13.5Z" fill="#262626"/>
</svg>
