<svg width="18" height="5" viewBox="0 0 18 5" fill="none" xmlns="http://www.w3.org/2000/svg">
<path fill-rule="evenodd" clip-rule="evenodd" d="M5 2.5C5 3.60457 4.10457 4.5 3 4.5C1.89543 4.5 1 3.60457 1 2.5C1 1.39543 1.89543 0.5 3 0.5C3.53043 0.5 4.03914 0.710714 4.41421 1.08579C4.78929 1.46086 5 1.96957 5 2.5Z" stroke="#525252" stroke-linecap="round" stroke-linejoin="round"/>
<path fill-rule="evenodd" clip-rule="evenodd" d="M11 2.5C11 3.60457 10.1046 4.5 9 4.5C7.89543 4.5 7 3.60457 7 2.5C7 1.39543 7.89543 0.5 9 0.5C10.1046 0.5 11 1.39543 11 2.5Z" stroke="#525252" stroke-linecap="round" stroke-linejoin="round"/>
<path fill-rule="evenodd" clip-rule="evenodd" d="M17 2.5C17 3.60457 16.1046 4.5 15 4.5C13.8954 4.5 13 3.60457 13 2.5C13 1.39543 13.8954 0.5 15 0.5C16.1046 0.5 17 1.39543 17 2.5Z" stroke="#525252" stroke-linecap="round" stroke-linejoin="round"/>
</svg>
