<svg width="21" height="23" viewBox="0 0 21 23" fill="none" xmlns="http://www.w3.org/2000/svg">
<path fill-rule="evenodd" clip-rule="evenodd" d="M1.16675 15.014C1.18656 17.6086 3.3041 19.6969 5.89875 19.6807H6.54008L8.43608 21.6807C8.62845 21.8791 8.89303 21.9911 9.16941 21.9911C9.4458 21.9911 9.71038 21.8791 9.90275 21.6807L11.7987 19.6807H12.4401C15.0327 19.694 17.1469 17.6065 17.1667 15.014V9.33402C17.1469 6.73939 15.0294 4.65109 12.4347 4.66735H5.90142C3.30573 4.64961 1.18656 6.73835 1.16675 9.33402L1.16675 15.014Z" stroke="#262626" stroke-linecap="round" stroke-linejoin="round"/>
<path d="M4 4.66738C4 4.94353 4.22386 5.16738 4.5 5.16738C4.77614 5.16738 5 4.94353 5 4.66738H4ZM15.7653 1.33405V1.83414L15.7746 1.83396L15.7653 1.33405ZM19.0777 2.63476L18.7307 2.9948V2.9948L19.0777 2.63476ZM20.5 5.89672H21.0001L20.9999 5.88748L20.5 5.89672ZM17.1667 15.5007C16.8905 15.5007 16.6667 15.7246 16.6667 16.0007C16.6667 16.2769 16.8905 16.5007 17.1667 16.5007V15.5007ZM5.16667 10.1674C4.89052 10.1674 4.66667 10.3912 4.66667 10.6674C4.66667 10.9435 4.89052 11.1674 5.16667 11.1674V10.1674ZM12.8533 11.1674C13.1295 11.1674 13.3533 10.9435 13.3533 10.6674C13.3533 10.3912 13.1295 10.1674 12.8533 10.1674V11.1674ZM6.128 12.978C5.85186 12.978 5.628 13.2019 5.628 13.478C5.628 13.7542 5.85186 13.978 6.128 13.978V12.978ZM11.892 13.978C12.1681 13.978 12.392 13.7542 12.392 13.478C12.392 13.2019 12.1681 12.978 11.892 12.978V13.978ZM5 4.66738C5 3.5779 5.44198 2.90894 6.14491 2.48346C6.88663 2.0345 7.96154 1.83405 9.232 1.83405V0.834051C7.88913 0.834051 6.59803 1.04027 5.62709 1.62797C4.61735 2.23916 4 3.23687 4 4.66738H5ZM9.232 1.83405H15.7653V0.834051H9.232V1.83405ZM15.7746 1.83396C16.8749 1.81358 17.9383 2.23114 18.7307 2.9948L19.4246 2.27473C18.4412 1.32704 17.1216 0.808837 15.7561 0.834137L15.7746 1.83396ZM18.7307 2.9948C19.5231 3.75845 19.9798 4.80563 20.0001 5.90595L20.9999 5.88748C20.9747 4.52198 20.408 3.22243 19.4246 2.27473L18.7307 2.9948ZM20 5.89672V11.4381H21V5.89672H20ZM20 11.4381C20 12.6733 19.8329 13.6999 19.4056 14.4054C19.0069 15.0638 18.3467 15.5007 17.1667 15.5007V16.5007C18.6533 16.5007 19.6598 15.9163 20.261 14.9234C20.8338 13.9775 21 12.7228 21 11.4381H20ZM5.16667 11.1674H12.8533V10.1674H5.16667V11.1674ZM6.128 13.978H11.892V12.978H6.128V13.978Z" fill="#262626"/>
</svg>
