<svg width="14" height="9" viewBox="0 0 14 9" fill="none" xmlns="http://www.w3.org/2000/svg">
<path d="M1 4C0.723858 4 0.5 4.22386 0.5 4.5C0.5 4.77614 0.723858 5 1 5V4ZM13 5C13.2761 5 13.5 4.77614 13.5 4.5C13.5 4.22386 13.2761 4 13 4V5ZM1 8C0.723858 8 0.5 8.22386 0.5 8.5C0.5 8.77614 0.723858 9 1 9V8ZM13 9C13.2761 9 13.5 8.77614 13.5 8.5C13.5 8.22386 13.2761 8 13 8V9ZM1 0C0.723858 0 0.5 0.223858 0.5 0.5C0.5 0.776142 0.723858 1 1 1V0ZM13 1C13.2761 1 13.5 0.776142 13.5 0.5C13.5 0.223858 13.2761 0 13 0V1ZM1 5H13V4H1V5ZM1 9H13V8H1V9ZM1 1H13V0H1V1Z" fill="#1E293B"/>
</svg>
