<svg width="12" height="17" viewBox="0 0 12 17" fill="none" xmlns="http://www.w3.org/2000/svg">
<path fill-rule="evenodd" clip-rule="evenodd" d="M11.3197 15.5091V3.27358C11.3237 2.79993 11.1393 2.34409 10.8072 2.00635C10.4752 1.66861 10.0225 1.47663 9.54883 1.47266H2.46554C1.99189 1.47663 1.53922 1.66861 1.20713 2.00635C0.87503 2.34409 0.69071 2.79993 0.694719 3.27358V15.5091C0.652624 15.8624 0.826078 16.2065 1.13509 16.3829C1.4441 16.5592 1.82864 16.5334 2.11138 16.3175L5.47594 13.4124C5.77925 13.1387 6.24044 13.1387 6.54375 13.4124L9.903 16.3184C10.1859 16.5345 10.5707 16.5602 10.8798 16.3836C11.1889 16.2071 11.3622 15.8625 11.3197 15.5091Z" stroke="#1E293B" stroke-linecap="round" stroke-linejoin="round"/>
</svg>
