<svg width="18" height="18" viewBox="0 0 18 18" fill="none" xmlns="http://www.w3.org/2000/svg">
<path fill-rule="evenodd" clip-rule="evenodd" d="M2.93912 13.3328C1.93014 12.3025 1.24579 10.9987 0.970957 9.58314C0.693853 8.16356 0.836146 6.69401 1.38046 5.35397C1.92012 4.02145 2.84146 2.87809 4.02879 2.06747C6.43778 0.422172 9.60913 0.422172 12.0181 2.06747C13.2055 2.87809 14.1268 4.02145 14.6665 5.35397C15.2108 6.69401 15.3531 8.16356 15.076 9.58314C14.8011 10.9987 14.1168 12.3025 13.1078 13.3328C11.7716 14.704 9.93809 15.4774 8.02346 15.4774C6.10882 15.4774 4.27536 14.704 2.93912 13.3328V13.3328Z" stroke="#262626" stroke-linecap="round" stroke-linejoin="round"/>
<path d="M8.07134 3.77628C7.79673 3.80537 7.59771 4.05157 7.62681 4.32618C7.6559 4.60078 7.9021 4.79981 8.17671 4.77071L8.07134 3.77628ZM10.5371 6.16125C10.6447 6.41554 10.9382 6.53442 11.1924 6.42676C11.4467 6.31911 11.5656 6.02569 11.458 5.7714L10.5371 6.16125ZM13.5676 12.8667C13.3721 12.6716 13.0556 12.6719 12.8605 12.8673C12.6654 13.0627 12.6657 13.3793 12.8611 13.5744L13.5676 12.8667ZM16.8138 17.5201C17.0092 17.7152 17.3258 17.7149 17.5209 17.5195C17.7159 17.324 17.7157 17.0074 17.5202 16.8124L16.8138 17.5201ZM8.17671 4.77071C9.18384 4.66399 10.1423 5.22861 10.5371 6.16125L11.458 5.7714C10.8915 4.43327 9.51635 3.62316 8.07134 3.77628L8.17671 4.77071ZM12.8611 13.5744L16.8138 17.5201L17.5202 16.8124L13.5676 12.8667L12.8611 13.5744Z" fill="#262626"/>
</svg>
