<svg width="13" height="15" viewBox="0 0 13 15" fill="none" xmlns="http://www.w3.org/2000/svg">
<path fill-rule="evenodd" clip-rule="evenodd" d="M12.0003 12.7342C11.969 11.8071 11.1976 11.0777 10.2702 11.0986C9.34284 11.1194 8.60492 11.8826 8.61534 12.8102C8.62577 13.7377 9.38067 14.4842 10.3083 14.4842C11.2586 14.4677 12.0159 13.6845 12.0003 12.7342Z" stroke="#525252" stroke-linecap="round" stroke-linejoin="round"/>
<path fill-rule="evenodd" clip-rule="evenodd" d="M6.07735 7.48413C6.10075 8.90999 4.9642 10.085 3.53836 10.1091C2.1129 10.0845 0.97696 8.90961 1.00035 7.48413C0.97696 6.05866 2.1129 4.88378 3.53836 4.85913C4.9642 4.88323 6.10075 6.05827 6.07735 7.48413Z" stroke="#525252" stroke-linecap="round" stroke-linejoin="round"/>
<path fill-rule="evenodd" clip-rule="evenodd" d="M11.1545 2.23414C11.1695 2.84862 10.8502 3.42293 10.3204 3.73456C9.79059 4.04619 9.1335 4.04619 8.60369 3.73456C8.07389 3.42293 7.75461 2.84862 7.76955 2.23414C7.75461 1.61966 8.07389 1.04536 8.60369 0.733725C9.1335 0.422092 9.79059 0.422092 10.3204 0.733725C10.8502 1.04536 11.1695 1.61966 11.1545 2.23414Z" stroke="#525252" stroke-linecap="round" stroke-linejoin="round"/>
<path d="M8.74942 11.9841C8.97471 12.1437 9.28679 12.0906 9.44649 11.8653C9.60618 11.64 9.55301 11.3279 9.32773 11.1682L8.74942 11.9841ZM5.82773 8.68723C5.60244 8.52754 5.29036 8.58071 5.13066 8.80599C4.97097 9.03127 5.02414 9.34336 5.24942 9.50305L5.82773 8.68723ZM8.53028 3.76016C8.73187 3.57144 8.74231 3.25503 8.55359 3.05344C8.36487 2.85184 8.04846 2.84141 7.84687 3.03012L8.53028 3.76016ZM5.20087 5.50712C4.99928 5.69584 4.98884 6.01225 5.17756 6.21385C5.36627 6.41544 5.68268 6.42588 5.88428 6.23716L5.20087 5.50712ZM9.32773 11.1682L5.82773 8.68723L5.24942 9.50305L8.74942 11.9841L9.32773 11.1682ZM7.84687 3.03012L5.20087 5.50712L5.88428 6.23716L8.53028 3.76016L7.84687 3.03012Z" fill="#525252"/>
</svg>
