<svg width="20" height="20" viewBox="0 0 20 20" fill="none" xmlns="http://www.w3.org/2000/svg">
<path fill-rule="evenodd" clip-rule="evenodd" d="M7.0734 6.02625C6.17073 7.38091 5.35873 8.73691 4.86007 9.62625L3.60807 8.32625C2.82921 7.50357 2.82921 6.21559 3.60807 5.39291C3.97671 5.00621 4.48714 4.78663 5.0214 4.78491H7.93473C7.64406 5.18358 7.35473 5.59958 7.0734 6.02625Z" stroke="url(#paint0_linear_6_4985)" stroke-linecap="round" stroke-linejoin="round"/>
<path fill-rule="evenodd" clip-rule="evenodd" d="M13.973 12.9263C12.6184 13.8289 11.2624 14.6409 10.373 15.1396L11.673 16.3916C12.4957 17.1705 13.7837 17.1705 14.6064 16.3916C14.9931 16.023 15.2127 15.5125 15.2144 14.9783V12.0649C14.8157 12.3556 14.3997 12.6449 13.973 12.9263Z" stroke="url(#paint1_linear_6_4985)" stroke-linecap="round" stroke-linejoin="round"/>
<path d="M4.11213 11.953C4.30735 11.7577 4.30729 11.4411 4.11198 11.2459C3.91668 11.0507 3.60009 11.0508 3.40487 11.2461L4.11213 11.953ZM0.312874 14.3394C0.117654 14.5347 0.117723 14.8513 0.313027 15.0465C0.508331 15.2417 0.824913 15.2417 1.02013 15.0464L0.312874 14.3394ZM6.43088 14.2743C6.62605 14.0789 6.62592 13.7624 6.43057 13.5672C6.23523 13.372 5.91864 13.3721 5.72346 13.5675L6.43088 14.2743ZM4.17946 15.1128C3.98429 15.3082 3.98442 15.6248 4.17977 15.8199C4.37512 16.0151 4.6917 16.015 4.88688 15.8196L4.17946 15.1128ZM5.21296 9.26691C5.01747 9.07189 4.70088 9.07227 4.50586 9.26777C4.31083 9.46326 4.31121 9.77985 4.50671 9.97487L5.21296 9.26691ZM7.6225 12.3769L7.97649 12.0238L7.97563 12.0229L7.6225 12.3769ZM10.0245 15.4927C10.2195 15.6882 10.5361 15.6886 10.7316 15.4935C10.9271 15.2985 10.9275 14.9819 10.7325 14.7864L10.0245 15.4927ZM7.5195 4.49802C7.36548 4.72722 7.42643 5.03788 7.65563 5.1919C7.88483 5.34591 8.19549 5.28497 8.34951 5.05577L7.5195 4.49802ZM10.3585 1.93556L10.0389 1.55104C10.0317 1.55705 10.0246 1.56326 10.0177 1.56967L10.3585 1.93556ZM19.2078 0.791558L19.7054 0.741984C19.6818 0.505047 19.4943 0.31763 19.2574 0.294022L19.2078 0.791558ZM18.0638 9.64222L18.4297 9.98299C18.4362 9.97607 18.4424 9.96896 18.4485 9.96168L18.0638 9.64222ZM14.9436 11.6512C14.7144 11.8052 14.6535 12.1159 14.8075 12.3451C14.9615 12.5743 15.2722 12.6352 15.5014 12.4812L14.9436 11.6512ZM8.75331 16.5945C8.94862 16.3993 8.94869 16.0827 8.75347 15.8874C8.55825 15.6921 8.24167 15.692 8.04636 15.8873L8.75331 16.5945ZM4.95303 18.9793C4.75772 19.1745 4.75766 19.4911 4.95288 19.6864C5.1481 19.8817 5.46468 19.8817 5.65998 19.6865L4.95303 18.9793ZM16.1281 4.57844C16.3233 4.38318 16.3233 4.0666 16.1281 3.87134C15.9328 3.67608 15.6162 3.67608 15.4209 3.87134L16.1281 4.57844ZM13.7716 5.52067C13.5764 5.71593 13.5764 6.03252 13.7716 6.22778C13.9669 6.42304 14.2835 6.42304 14.4787 6.22778L13.7716 5.52067ZM3.40487 11.2461L0.312874 14.3394L1.02013 15.0464L4.11213 11.953L3.40487 11.2461ZM5.72346 13.5675L4.17946 15.1128L4.88688 15.8196L6.43088 14.2743L5.72346 13.5675ZM4.50671 9.97487L7.26938 12.7309L7.97563 12.0229L5.21296 9.26691L4.50671 9.97487ZM7.26852 12.73L10.0245 15.4927L10.7325 14.7864L7.97648 12.0238L7.26852 12.73ZM8.34951 5.05577C9.02483 4.0508 9.81324 3.12665 10.6993 2.30145L10.0177 1.56967C9.07572 2.44701 8.23749 3.42955 7.5195 4.49802L8.34951 5.05577ZM10.6781 2.32008C11.0329 2.02518 11.584 1.78207 12.2914 1.59748C12.9909 1.41495 13.8027 1.29987 14.6431 1.23508C16.3243 1.10546 18.0702 1.18068 19.1583 1.28909L19.2574 0.294022C18.1241 0.181101 16.318 0.102984 14.5662 0.238037C13.6902 0.305576 12.8152 0.427332 12.0389 0.629882C11.2705 0.830377 10.5568 1.1206 10.0389 1.55104L10.6781 2.32008ZM18.7103 0.841132C18.8187 1.92918 18.8939 3.67507 18.7643 5.35646C18.6995 6.197 18.5844 7.00885 18.4019 7.7086C18.2173 8.4162 17.9742 8.96759 17.6792 9.32277L18.4485 9.96168C18.8788 9.44352 19.169 8.72958 19.3695 7.96102C19.5721 7.18459 19.6938 6.30945 19.7614 5.43332C19.8964 3.68138 19.8183 1.87527 19.7054 0.741984L18.7103 0.841132ZM17.6979 9.30145C16.8727 10.1875 15.9486 10.9759 14.9436 11.6512L15.5014 12.4812C16.5698 11.7632 17.5524 10.925 18.4297 9.98299L17.6979 9.30145ZM8.04636 15.8873L4.95303 18.9793L5.65998 19.6865L8.75331 16.5945L8.04636 15.8873ZM15.4209 3.87134L13.7716 5.52067L14.4787 6.22778L16.1281 4.57844L15.4209 3.87134Z" fill="url(#paint2_linear_6_4985)"/>
<defs>
<linearGradient id="paint0_linear_6_4985" x1="3.4649" y1="9.62625" x2="7.95053" y2="9.20322" gradientUnits="userSpaceOnUse">
<stop stop-color="#FF006B"/>
<stop offset="1" stop-color="#9E00FF"/>
</linearGradient>
<linearGradient id="paint1_linear_6_4985" x1="10.8078" y1="16.9757" x2="15.2321" y2="16.5702" gradientUnits="userSpaceOnUse">
<stop stop-color="#FF006B"/>
<stop offset="1" stop-color="#9E00FF"/>
</linearGradient>
<linearGradient id="paint2_linear_6_4985" x1="2.34266" y1="19.3329" x2="19.397" y2="17.7473" gradientUnits="userSpaceOnUse">
<stop stop-color="#FF006B"/>
<stop offset="1" stop-color="#9E00FF"/>
</linearGradient>
</defs>
</svg>
