<svg width="20" height="20" viewBox="0 0 20 20" fill="none" xmlns="http://www.w3.org/2000/svg">
<path fill-rule="evenodd" clip-rule="evenodd" d="M8.2465 15.3334C7.57243 15.3628 6.94822 14.9793 6.66976 14.3647C6.3913 13.7502 6.51455 13.028 6.98109 12.5406C7.44764 12.0532 8.1637 11.8985 8.78986 12.1498C9.41601 12.4011 9.8264 13.008 9.8265 13.6827C9.84586 14.5748 9.13856 15.3137 8.2465 15.3334Z" stroke="#525252" stroke-linecap="round" stroke-linejoin="round"/>
<path d="M9.32659 13.6826C9.32659 13.9588 9.55045 14.1826 9.82659 14.1826C10.1027 14.1826 10.3266 13.9588 10.3266 13.6826H9.32659ZM10.3266 7.33329C10.3266 7.05715 10.1027 6.83329 9.82659 6.83329C9.55045 6.83329 9.32659 7.05715 9.32659 7.33329H10.3266ZM9.82659 7.33329H9.32659C9.32659 7.47528 9.38696 7.61057 9.49263 7.70541C9.59831 7.80025 9.73932 7.84568 9.88048 7.83038L9.82659 7.33329ZM9.82659 6.19063H10.3266C10.3266 6.1798 10.3262 6.16897 10.3255 6.15817L9.82659 6.19063ZM10.2287 5.09957L9.87019 4.75107L10.2287 5.09957ZM11.3079 4.66663L11.2896 5.16629C11.2957 5.16651 11.3018 5.16663 11.3079 5.16663V4.66663ZM12.1639 4.66663V5.16663C12.1724 5.16663 12.1809 5.16641 12.1894 5.16597L12.1639 4.66663ZM13.4253 5.80529L13.9246 5.77977L13.4253 5.80529ZM12.2866 7.06663L12.2611 6.56728C12.2516 6.56776 12.2421 6.56852 12.2327 6.56954L12.2866 7.06663ZM6.41059 0.666626V0.166618L6.40783 0.166634L6.41059 0.666626ZM13.5893 0.666626L13.592 0.166626H13.5893V0.666626ZM17.6642 2.38098L17.3087 2.73257V2.73257L17.6642 2.38098ZM19.3333 6.47463L18.8333 6.47185V6.47463H19.3333ZM19.3333 13.5253H18.8333L18.8333 13.5281L19.3333 13.5253ZM17.6642 17.6189L17.3087 17.2674L17.6642 17.6189ZM13.5893 19.3333V19.8333L13.592 19.8333L13.5893 19.3333ZM6.41059 19.3333L6.40783 19.8333H6.41059V19.3333ZM2.33569 17.6189L1.98018 17.9705H1.98018L2.33569 17.6189ZM0.666593 13.5253L1.16659 13.5281V13.5253H0.666593ZM0.666593 6.47463H1.1666L1.16659 6.47185L0.666593 6.47463ZM2.33569 2.38098L2.6912 2.73257L2.33569 2.38098ZM10.3266 13.6826V7.33329H9.32659V13.6826H10.3266ZM10.3266 7.33329V6.19063H9.32659V7.33329H10.3266ZM10.3255 6.15817C10.3084 5.89511 10.4035 5.6371 10.5873 5.44807L9.87019 4.75107C9.4893 5.14293 9.29217 5.67776 9.32765 6.22308L10.3255 6.15817ZM10.5873 5.44807C10.771 5.25903 11.0262 5.15665 11.2896 5.16629L11.3262 4.16696C10.7801 4.14698 10.2511 4.35921 9.87019 4.75107L10.5873 5.44807ZM11.3079 5.16663H12.1639V4.16663H11.3079V5.16663ZM12.1894 5.16597C12.5764 5.1462 12.9061 5.44386 12.9259 5.83081L13.9246 5.77977C13.8766 4.84125 13.0769 4.11931 12.1384 4.16728L12.1894 5.16597ZM12.9259 5.83081C12.9457 6.21777 12.648 6.5475 12.2611 6.56728L12.3121 7.56597C13.2506 7.518 13.9726 6.71829 13.9246 5.77977L12.9259 5.83081ZM12.2327 6.56954L9.77271 6.8362L9.88048 7.83038L12.3405 7.56371L12.2327 6.56954ZM6.41059 1.16663H13.5893V0.166626H6.41059V1.16663ZM13.5865 1.16662C14.9858 1.17435 16.3247 1.73764 17.3087 2.73257L18.0197 2.02939C16.8492 0.845885 15.2565 0.17583 13.592 0.166634L13.5865 1.16662ZM17.3087 2.73257C18.2926 3.7275 18.841 5.07256 18.8333 6.47185L19.8333 6.4774C19.8425 4.8129 19.1901 3.21289 18.0197 2.02939L17.3087 2.73257ZM18.8333 6.47463V13.5253H19.8333V6.47463H18.8333ZM18.8333 13.5281C18.841 14.9274 18.2926 16.2724 17.3087 17.2674L18.0197 17.9705C19.1901 16.787 19.8425 15.187 19.8333 13.5225L18.8333 13.5281ZM17.3087 17.2674C16.3247 18.2623 14.9858 18.8256 13.5865 18.8333L13.592 19.8333C15.2565 19.8241 16.8492 19.154 18.0197 17.9705L17.3087 17.2674ZM13.5893 18.8333H6.41059V19.8333H13.5893V18.8333ZM6.41336 18.8333C5.01407 18.8256 3.67516 18.2623 2.6912 17.2674L1.98018 17.9705C3.15065 19.154 4.74332 19.8241 6.40783 19.8333L6.41336 18.8333ZM2.6912 17.2674C1.70723 16.2724 1.15881 14.9274 1.16659 13.5281L0.166601 13.5225C0.157354 15.187 0.809721 16.787 1.98018 17.9705L2.6912 17.2674ZM1.16659 13.5253V6.47463H0.166593V13.5253H1.16659ZM1.16659 6.47185C1.15881 5.07256 1.70723 3.7275 2.6912 2.73257L1.98018 2.02939C0.809721 3.21289 0.157354 4.8129 0.166601 6.4774L1.16659 6.47185ZM2.6912 2.73257C3.67516 1.73764 5.01407 1.17435 6.41336 1.16662L6.40783 0.166634C4.74332 0.17583 3.15065 0.845885 1.98018 2.02939L2.6912 2.73257Z" fill="#525252"/>
</svg>
