<svg width="28" height="28" viewBox="0 0 28 28" fill="none" xmlns="http://www.w3.org/2000/svg">
<path fill-rule="evenodd" clip-rule="evenodd" d="M15.8858 21.5438C16.9271 22.5852 16.9271 24.2736 15.8858 25.315C14.8444 26.3564 13.1559 26.3564 12.1145 25.315C11.0731 24.2736 11.0731 22.5852 12.1145 21.5438L21.5426 12.1157C22.584 11.0743 24.2724 11.0743 25.3138 12.1157C26.3552 13.1571 26.3552 14.8456 25.3138 15.887C24.2724 16.9284 22.584 16.9284 21.5426 15.887L19.657 14.0013L14.0001 19.6582L15.8858 21.5438Z" stroke="#525252" stroke-linecap="round" stroke-linejoin="round"/>
<path d="M14 8.34447L13.6464 8.69803C13.7402 8.7918 13.8674 8.84447 14 8.84447C14.1326 8.84447 14.2598 8.7918 14.3536 8.69803L14 8.34447ZM15.8856 6.45886L15.5321 6.1053L15.8856 6.45886ZM14.3536 7.99092C14.1583 7.79566 13.8417 7.79566 13.6464 7.99092C13.4512 8.18618 13.4512 8.50277 13.6464 8.69803L14.3536 7.99092ZM19.3033 14.3549C19.4986 14.5501 19.8151 14.5501 20.0104 14.3549C20.2057 14.1596 20.2057 13.843 20.0104 13.6478L19.3033 14.3549ZM14.3536 8.69803C14.5488 8.50277 14.5488 8.18618 14.3536 7.99092C14.1583 7.79566 13.8417 7.79566 13.6464 7.99092L14.3536 8.69803ZM7.98959 13.6478C7.79433 13.843 7.79433 14.1596 7.98959 14.3549C8.18485 14.5501 8.50144 14.5501 8.6967 14.3549L7.98959 13.6478ZM8.34315 14.0013L8.6967 14.3549C8.89196 14.1596 8.89196 13.843 8.6967 13.6478L8.34315 14.0013ZM8.6967 13.6478C8.50144 13.4525 8.18485 13.4525 7.98959 13.6478C7.79433 13.843 7.79433 14.1596 7.98959 14.3549L8.6967 13.6478ZM13.6464 20.0117C13.8417 20.207 14.1583 20.207 14.3536 20.0117C14.5488 19.8165 14.5488 19.4999 14.3536 19.3046L13.6464 20.0117ZM14.3536 7.99092L12.4679 6.1053L11.7608 6.81241L13.6464 8.69803L14.3536 7.99092ZM12.4679 6.1053C11.6218 5.25917 11.6218 3.88731 12.4679 3.04117L11.7608 2.33407C10.5242 3.57073 10.5242 5.57575 11.7608 6.81241L12.4679 6.1053ZM12.4679 3.04117C13.3141 2.19504 14.6859 2.19504 15.5321 3.04117L16.2392 2.33407C15.0025 1.09741 12.9975 1.09741 11.7608 2.33407L12.4679 3.04117ZM15.5321 3.04117C16.3782 3.88731 16.3782 5.25917 15.5321 6.1053L16.2392 6.81241C17.4758 5.57575 17.4758 3.57073 16.2392 2.33407L15.5321 3.04117ZM15.5321 6.1053L13.6464 7.99092L14.3536 8.69803L16.2392 6.81241L15.5321 6.1053ZM13.6464 8.69803L19.3033 14.3549L20.0104 13.6478L14.3536 7.99092L13.6464 8.69803ZM13.6464 7.99092L7.98959 13.6478L8.6967 14.3549L14.3536 8.69803L13.6464 7.99092ZM7.98959 13.6478L6.10397 15.5334L6.81108 16.2405L8.6967 14.3549L7.98959 13.6478ZM6.10397 15.5334C5.25784 16.3795 3.88598 16.3795 3.03984 15.5334L2.33274 16.2405C3.5694 17.4772 5.57442 17.4772 6.81108 16.2405L6.10397 15.5334ZM3.03984 15.5334C2.19371 14.6873 2.19371 13.3154 3.03985 12.4693L2.33274 11.7622C1.09608 12.9988 1.09608 15.0038 2.33274 16.2405L3.03984 15.5334ZM3.03985 12.4693C3.88598 11.6231 5.25784 11.6231 6.10397 12.4693L6.81108 11.7622C5.57442 10.5255 3.5694 10.5255 2.33274 11.7622L3.03985 12.4693ZM6.10397 12.4693L7.98959 14.3549L8.6967 13.6478L6.81108 11.7622L6.10397 12.4693ZM7.98959 14.3549L13.6464 20.0117L14.3536 19.3046L8.6967 13.6478L7.98959 14.3549Z" fill="#525252"/>
</svg>
