<svg width="20" height="20" viewBox="0 0 20 20" fill="none" xmlns="http://www.w3.org/2000/svg">
<path fill-rule="evenodd" clip-rule="evenodd" d="M8.67717 6.23354L12.8918 9.09754C13.1649 9.25697 13.3327 9.54937 13.3327 9.86554C13.3327 10.1817 13.1649 10.4741 12.8918 10.6335L8.67717 13.7669C7.87717 14.3095 6.6665 13.8469 6.6665 12.9989V6.99888C6.6665 6.15488 7.8785 5.69088 8.67717 6.23354Z" stroke="#525252" stroke-linecap="round" stroke-linejoin="round"/>
<path fill-rule="evenodd" clip-rule="evenodd" d="M0.666504 8.66675V11.3334C0.666504 15.7517 4.24823 19.3334 8.66651 19.3334H11.3332C15.7515 19.3334 19.3332 15.7517 19.3332 11.3334V8.66675C19.3332 4.24847 15.7515 0.666748 11.3332 0.666748H8.66651C4.24823 0.666748 0.666504 4.24847 0.666504 8.66675Z" stroke="#525252" stroke-linecap="round" stroke-linejoin="round"/>
</svg>
