<svg width="16" height="22" viewBox="0 0 16 22" fill="none" xmlns="http://www.w3.org/2000/svg">
<path fill-rule="evenodd" clip-rule="evenodd" d="M15.0929 19.3451V3.03112C15.0982 2.39959 14.8525 1.7918 14.4097 1.34148C13.9669 0.891153 13.3633 0.635183 12.7318 0.629883H3.28739C2.65586 0.635183 2.0523 0.891153 1.6095 1.34148C1.16671 1.7918 0.920946 2.39959 0.926292 3.03112V19.3451C0.870165 19.8162 1.10144 20.2751 1.51345 20.5102C1.92547 20.7453 2.43819 20.7109 2.81517 20.423L7.30125 16.5496C7.70566 16.1846 8.32059 16.1846 8.725 16.5496L13.204 20.4241C13.5811 20.7123 14.0942 20.7466 14.5064 20.5112C14.9185 20.2757 15.1496 19.8164 15.0929 19.3451Z" stroke="#525252" stroke-linecap="round" stroke-linejoin="round"/>
</svg>
