<svg width="22" height="21" viewBox="0 0 22 21" fill="none" xmlns="http://www.w3.org/2000/svg">
<path d="M10.637 10.1346C10.637 10.3564 10.8004 10.5379 11.0001 10.5379C11.1997 10.5379 11.3631 10.3564 11.3631 10.1346V8.92468H12.7535C14.79 8.92468 16.4454 7.08566 16.4454 4.82319V2.87529C16.4454 2.71397 16.3583 2.56475 16.2204 2.50426C16.086 2.44376 15.9299 2.47603 15.8247 2.59298C15.4253 3.0366 14.8953 3.28261 14.329 3.28261C13.1165 3.28261 12.0347 3.93595 11.3631 4.94418V1.26212C11.3631 1.0403 11.1997 0.858822 11.0001 0.858822C10.8004 0.858822 10.637 1.0403 10.637 1.26212V3.32697C9.96181 2.31874 8.88363 1.66541 7.67112 1.66541C7.10481 1.66541 6.57479 1.4194 6.17546 0.975777C6.07018 0.858822 5.91408 0.826559 5.77976 0.887053C5.64544 0.947547 5.55469 1.09677 5.55469 1.25808V3.20599C5.55469 5.46846 7.21008 7.30747 9.24665 7.30747H10.637V10.1346ZM14.329 4.08516C14.8227 4.08516 15.2983 3.94401 15.7194 3.68187V4.81916C15.7194 6.63801 14.3871 8.11406 12.7535 8.11406H12.0891L14.1221 6.42023C14.2818 6.28714 14.3145 6.03307 14.1947 5.85562C14.0749 5.67817 13.8462 5.64187 13.6865 5.77496L11.3631 7.71077V7.37603C11.3631 5.56525 12.6954 4.08516 14.329 4.08516ZM6.28074 3.21002V2.0687C6.70185 2.33084 7.17741 2.47199 7.67112 2.47199C9.30837 2.47199 10.637 3.95208 10.637 5.7669V6.10163L8.31368 4.16582C8.15395 4.03274 7.92524 4.06903 7.80544 4.24648C7.68565 4.42393 7.71832 4.67801 7.87805 4.81109L9.91099 6.50492H9.24665C7.61304 6.50492 6.28074 5.02484 6.28074 3.21002Z" fill="#525252"/>
<path d="M3.54379 16.5797L5.43664 17.5774V19.8045C5.43664 20.0322 5.61372 20.2185 5.83016 20.2185H10.0015C10.2179 20.2185 10.395 20.0322 10.395 19.8045V14.4022C10.395 13.1354 9.48993 12.0839 8.29362 11.9556C8.28968 11.9556 6.62901 11.6823 5.85771 10.8709L4.97228 9.94363C4.67714 9.62901 4.28361 9.45514 3.86254 9.45514V6.14333C3.86254 5.22844 3.15814 4.48743 2.28845 4.48743C1.41876 4.48743 0.714355 5.22844 0.714355 6.14333V11.7651C0.714355 12.7669 0.978016 13.7439 1.47779 14.5926C1.97757 15.4454 2.69378 16.1326 3.54379 16.5797ZM1.5014 6.14333C1.5014 5.68796 1.85557 5.31538 2.28845 5.31538C2.72132 5.31538 3.0755 5.68796 3.0755 6.14333V9.67869C2.5954 9.97261 2.28845 10.5149 2.28845 11.111C2.28845 11.554 2.45373 11.968 2.74887 12.2826L4.76371 14.4022C4.91719 14.5636 5.1651 14.5636 5.31858 14.4022C5.47205 14.2407 5.47205 13.9799 5.31858 13.8184L3.30374 11.6989C3.1542 11.5416 3.07156 11.3346 3.07156 11.1152C3.07156 10.7633 3.28406 10.4528 3.59495 10.3328C3.86648 10.2334 4.18917 10.2914 4.41348 10.5273L5.2989 11.4546C6.21188 12.4151 8.20311 12.7752 8.20704 12.7752C9.00196 12.858 9.60405 13.5576 9.60405 14.398V19.3906H6.21975V17.3207C6.21975 17.1634 6.13711 17.0185 6.00331 16.9522L3.89009 15.8428C2.41831 15.0645 1.5014 13.5038 1.5014 11.7651V6.14333Z" fill="#525252"/>
<path d="M18.4613 16.5797C19.311 16.1326 20.023 15.4454 20.5225 14.5967C21.0221 13.7439 21.2857 12.7669 21.2857 11.7693V6.14333C21.2857 5.22844 20.5815 4.48743 19.7122 4.48743C18.8429 4.48743 18.1387 5.22844 18.1387 6.14333V9.45514C17.7178 9.45514 17.3245 9.62901 17.0255 9.93949L16.1405 10.8668C15.3695 11.6782 13.7095 11.9514 13.7055 11.9514C12.5097 12.0756 11.605 13.1312 11.605 14.398V19.8045C11.605 20.0322 11.782 20.2185 11.9983 20.2185H16.168C16.3843 20.2185 16.5614 20.0322 16.5614 19.8045V17.5774L18.4613 16.5797ZM20.5029 11.7651C20.5029 13.4997 19.5863 15.0604 18.1112 15.8387L15.9988 16.9481C15.8651 17.0185 15.7825 17.1634 15.7825 17.3165V19.3864H12.3996V14.4022C12.3996 13.5618 12.9975 12.8622 13.796 12.7794C13.7999 12.7794 15.7943 12.4151 16.703 11.4588L17.588 10.5315C17.8123 10.2955 18.1348 10.2334 18.4062 10.3369C18.7209 10.4528 18.9294 10.7674 18.9294 11.1193C18.9294 11.3387 18.8468 11.5499 18.6973 11.703L16.6833 13.8226C16.5299 13.984 16.5299 14.2448 16.6833 14.4063C16.8367 14.5677 17.0845 14.5677 17.2379 14.4063L19.252 12.2867C19.5509 11.9721 19.7122 11.5581 19.7122 11.1152C19.7122 10.5191 19.4054 9.97261 18.9255 9.68283V6.14333C18.9255 5.68796 19.2795 5.31538 19.7122 5.31538C20.1449 5.31538 20.4989 5.68796 20.4989 6.14333V11.7651H20.5029Z" fill="#525252"/>
</svg>
