<svg width="19" height="20" viewBox="0 0 19 20" fill="none" xmlns="http://www.w3.org/2000/svg">
<path fill-rule="evenodd" clip-rule="evenodd" d="M13 0.666748H6.33333C3.38781 0.666748 1 3.05456 1 6.00008V14.0001C1 16.9456 3.38781 19.3334 6.33333 19.3334H13C15.9455 19.3334 18.3333 16.9456 18.3333 14.0001V6.00008C18.3333 3.05456 15.9455 0.666748 13 0.666748Z" stroke="#1E293B" stroke-linecap="round" stroke-linejoin="round"/>
<path d="M13.6665 6.5C13.9426 6.5 14.1665 6.27614 14.1665 6C14.1665 5.72386 13.9426 5.5 13.6665 5.5V6.5ZM5.6665 5.5C5.39036 5.5 5.1665 5.72386 5.1665 6C5.1665 6.27614 5.39036 6.5 5.6665 6.5V5.5ZM13.6665 10.5C13.9426 10.5 14.1665 10.2761 14.1665 10C14.1665 9.72386 13.9426 9.5 13.6665 9.5V10.5ZM5.6665 9.5C5.39036 9.5 5.1665 9.72386 5.1665 10C5.1665 10.2761 5.39036 10.5 5.6665 10.5V9.5ZM9.6665 14.5C9.94265 14.5 10.1665 14.2761 10.1665 14C10.1665 13.7239 9.94265 13.5 9.6665 13.5V14.5ZM5.6665 13.5C5.39036 13.5 5.1665 13.7239 5.1665 14C5.1665 14.2761 5.39036 14.5 5.6665 14.5V13.5ZM13.6665 5.5H5.6665V6.5H13.6665V5.5ZM13.6665 9.5H5.6665V10.5H13.6665V9.5ZM9.6665 13.5H5.6665V14.5H9.6665V13.5Z" fill="#1E293B"/>
</svg>
